<svg viewBox="0 0 200 250" xmlns="http://www.w3.org/2000/svg">

  <!-- ── Tige (stem) ── -->
  <path d="M 83 113 C 83 150, 97 200, 114 246"
        stroke="#D4883A" stroke-width="3.8" fill="none" stroke-linecap="round"/>

  <!-- ── Feuilles (leaves) ── -->
  <path d="M 98 200 C 78 188, 58 180, 50 169 C 62 175, 82 188, 98 200 Z"
        fill="#D4883A"/>
  <path d="M 105 222 C 125 208, 136 197, 132 185 C 123 195, 112 210, 105 222 Z"
        fill="#D4883A"/>

  <!-- ── Centre de la tête ── -->
  <circle cx="80" cy="105" r="5.5" fill="#D4883A"/>

  <!-- ── Filaments (20 rayons, intervalles de 18°) ── -->
  <!-- 0° → (132, 105) -->
  <line x1="80" y1="105" x2="132" y2="105" stroke="#D4883A" stroke-width="0.95"/>
  <circle cx="134.5" cy="105" r="2.5" fill="#D4883A"/>

  <!-- 18° → (129.5, 88.9) -->
  <line x1="80" y1="105" x2="130" y2="89" stroke="#D4883A" stroke-width="0.95"/>
  <circle cx="132" cy="86.5" r="2.5" fill="#D4883A"/>

  <!-- 36° → (122.1, 74.4) -->
  <line x1="80" y1="105" x2="122" y2="74" stroke="#D4883A" stroke-width="0.95"/>
  <circle cx="123.5" cy="71.5" r="2.5" fill="#D4883A"/>

  <!-- 54° → (110.6, 62.9) -->
  <line x1="80" y1="105" x2="111" y2="63" stroke="#D4883A" stroke-width="0.95"/>
  <circle cx="112" cy="60.5" r="2.5" fill="#D4883A"/>

  <!-- 72° → (96.1, 55.5) -->
  <line x1="80" y1="105" x2="96" y2="55.5" stroke="#D4883A" stroke-width="0.95"/>
  <circle cx="96" cy="53" r="2.5" fill="#D4883A"/>

  <!-- 90° → (80, 53) -->
  <line x1="80" y1="105" x2="80" y2="53" stroke="#D4883A" stroke-width="0.95"/>
  <circle cx="80" cy="50.5" r="2.5" fill="#D4883A"/>

  <!-- 108° → (63.9, 55.5) -->
  <line x1="80" y1="105" x2="64" y2="55.5" stroke="#D4883A" stroke-width="0.95"/>
  <circle cx="64" cy="53" r="2.5" fill="#D4883A"/>

  <!-- 126° → (49.4, 62.9) -->
  <line x1="80" y1="105" x2="49" y2="63" stroke="#D4883A" stroke-width="0.95"/>
  <circle cx="48" cy="60.5" r="2.5" fill="#D4883A"/>

  <!-- 144° → (37.9, 74.4) -->
  <line x1="80" y1="105" x2="38" y2="74" stroke="#D4883A" stroke-width="0.95"/>
  <circle cx="36.5" cy="71.5" r="2.5" fill="#D4883A"/>

  <!-- 162° → (30.5, 88.9) -->
  <line x1="80" y1="105" x2="30" y2="89" stroke="#D4883A" stroke-width="0.95"/>
  <circle cx="28" cy="86.5" r="2.5" fill="#D4883A"/>

  <!-- 180° → (28, 105) -->
  <line x1="80" y1="105" x2="28" y2="105" stroke="#D4883A" stroke-width="0.95"/>
  <circle cx="25.5" cy="105" r="2.5" fill="#D4883A"/>

  <!-- 198° → (30.5, 121.1) -->
  <line x1="80" y1="105" x2="30" y2="121" stroke="#D4883A" stroke-width="0.95"/>
  <circle cx="28" cy="123.5" r="2.5" fill="#D4883A"/>

  <!-- 216° → (37.9, 135.6) -->
  <line x1="80" y1="105" x2="38" y2="136" stroke="#D4883A" stroke-width="0.95"/>
  <circle cx="36.5" cy="138.5" r="2.5" fill="#D4883A"/>

  <!-- 234° → (49.4, 147.1) -->
  <line x1="80" y1="105" x2="49" y2="147" stroke="#D4883A" stroke-width="0.95"/>
  <circle cx="48" cy="149.5" r="2.5" fill="#D4883A"/>

  <!-- 252° → (63.9, 154.5) -->
  <line x1="80" y1="105" x2="64" y2="154.5" stroke="#D4883A" stroke-width="0.95"/>
  <circle cx="64" cy="157" r="2.5" fill="#D4883A"/>

  <!-- 270° → (80, 157) -->
  <line x1="80" y1="105" x2="80" y2="157" stroke="#D4883A" stroke-width="0.95"/>
  <circle cx="80" cy="159.5" r="2.5" fill="#D4883A"/>

  <!-- 288° → (96.1, 154.5) -->
  <line x1="80" y1="105" x2="96" y2="154.5" stroke="#D4883A" stroke-width="0.95"/>
  <circle cx="96" cy="157" r="2.5" fill="#D4883A"/>

  <!-- 306° → (110.6, 147.1) -->
  <line x1="80" y1="105" x2="111" y2="147" stroke="#D4883A" stroke-width="0.95"/>
  <circle cx="112" cy="149.5" r="2.5" fill="#D4883A"/>

  <!-- 324° → (122.1, 135.6) -->
  <line x1="80" y1="105" x2="122" y2="136" stroke="#D4883A" stroke-width="0.95"/>
  <circle cx="123.5" cy="138.5" r="2.5" fill="#D4883A"/>

  <!-- 342° → (129.5, 121.1) -->
  <line x1="80" y1="105" x2="130" y2="121" stroke="#D4883A" stroke-width="0.95"/>
  <circle cx="132" cy="123.5" r="2.5" fill="#D4883A"/>

  <!-- ── Graines envolées (seeds blowing upper-right) ── -->

  <!-- Graine 1 (plus proche) -->
  <line x1="131" y1="107" x2="150" y2="80" stroke="#D4883A" stroke-width="0.85"/>
  <circle cx="150" cy="82.5" r="2.1" fill="#D4883A"/>
  <line x1="150" y1="80" x2="145.5" y2="73.5" stroke="#D4883A" stroke-width="0.62"/>
  <line x1="150" y1="80" x2="148"   y2="72"   stroke="#D4883A" stroke-width="0.62"/>
  <line x1="150" y1="80" x2="150.5" y2="71"   stroke="#D4883A" stroke-width="0.62"/>
  <line x1="150" y1="80" x2="153"   y2="72.5" stroke="#D4883A" stroke-width="0.62"/>

  <!-- Graine 2 -->
  <line x1="131" y1="105" x2="163" y2="57" stroke="#D4883A" stroke-width="0.85"/>
  <circle cx="163" cy="59.5" r="2.1" fill="#D4883A"/>
  <line x1="163" y1="57" x2="158.5" y2="50.5" stroke="#D4883A" stroke-width="0.62"/>
  <line x1="163" y1="57" x2="161"   y2="49"   stroke="#D4883A" stroke-width="0.62"/>
  <line x1="163" y1="57" x2="163.5" y2="48"   stroke="#D4883A" stroke-width="0.62"/>
  <line x1="163" y1="57" x2="166"   y2="49.5" stroke="#D4883A" stroke-width="0.62"/>

  <!-- Graine 3 -->
  <line x1="132" y1="103" x2="176" y2="36" stroke="#D4883A" stroke-width="0.85"/>
  <circle cx="176" cy="38.5" r="2.1" fill="#D4883A"/>
  <line x1="176" y1="36" x2="171.5" y2="29.5" stroke="#D4883A" stroke-width="0.62"/>
  <line x1="176" y1="36" x2="174"   y2="28"   stroke="#D4883A" stroke-width="0.62"/>
  <line x1="176" y1="36" x2="176.5" y2="27"   stroke="#D4883A" stroke-width="0.62"/>
  <line x1="176" y1="36" x2="179"   y2="28.5" stroke="#D4883A" stroke-width="0.62"/>

  <!-- Graine 4 (plus éloignée) -->
  <line x1="133" y1="101" x2="188" y2="17" stroke="#D4883A" stroke-width="0.85"/>
  <circle cx="188" cy="19.5" r="2.1" fill="#D4883A"/>
  <line x1="188" y1="17" x2="183.5" y2="10.5" stroke="#D4883A" stroke-width="0.62"/>
  <line x1="188" y1="17" x2="186"   y2="9"    stroke="#D4883A" stroke-width="0.62"/>
  <line x1="188" y1="17" x2="188.5" y2="8"    stroke="#D4883A" stroke-width="0.62"/>
  <line x1="188" y1="17" x2="191"   y2="9.5"  stroke="#D4883A" stroke-width="0.62"/>

</svg>
